<?xml version="1.0" encoding="UTF-8"?>
<svg id="Capa_2" data-name="Capa 2" xmlns="http://www.w3.org/2000/svg" viewBox="0 0 100.19 59.76">
  <defs>
    <style>
      .cls-1 {
        fill: #000;
        stroke-width: 0px;
      }
    </style>
  </defs>
  <g id="Capa_1-2" data-name="Capa 1">
    <g>
      <path class="cls-1" d="M0,59.76V0h7.88v27.04h.17L36.11,0h9.92L13.48,30.94l.08-3.81,34.75,32.64h-10.26L8.05,31.7h-.17v28.06H0Z"/>
      <path class="cls-1" d="M54.33,59.76V0h24.33c6.44,0,11.39,1.36,14.83,4.07,3.45,2.71,5.17,6.53,5.17,11.44,0,3.73-1.12,6.84-3.35,9.32-2.23,2.49-5.27,4.15-9.11,5v-1.27c4.41.51,7.84,2.03,10.3,4.58,2.46,2.54,3.69,5.91,3.69,10.09,0,5.31-1.78,9.4-5.34,12.25-3.56,2.85-8.59,4.28-15.09,4.28h-25.43ZM61.96,26.36h15.6c4.46,0,7.8-.86,10-2.59,2.2-1.72,3.31-4.22,3.31-7.5s-1.1-5.78-3.31-7.5c-2.2-1.72-5.54-2.59-10-2.59h-15.6v20.17ZM61.96,53.49h17.04c4.18,0,7.47-.81,9.88-2.42,2.4-1.61,3.6-4.28,3.6-8.01s-1.2-6.47-3.6-8.05c-2.4-1.58-5.69-2.37-9.88-2.37h-17.04v20.85Z"/>
    </g>
  </g>
</svg>