<?xml version="1.0" encoding="UTF-8"?>
<svg id="Capa_2" data-name="Capa 2" xmlns="http://www.w3.org/2000/svg" viewBox="0 0 462.99 63.15">
  <defs>
    <style>
      .cls-1 {
        fill: #000;
        stroke-width: 0px;
      }
    </style>
  </defs>
  <g id="Capa_1-2" data-name="Capa 1">
    <g>
      <path class="cls-1" d="M0,62.39V2.63h7.88v27.04h.17L36.11,2.63h9.92L13.48,33.57l.08-3.81,34.75,32.64h-10.26l-30.01-28.06h-.17v28.06H0Z"/>
      <path class="cls-1" d="M67.81,63.15c-5.14,0-9-1.38-11.57-4.15-2.57-2.77-3.86-7.04-3.86-12.8v-26.45h7.71v26.28c0,3.73.76,6.47,2.29,8.22,1.53,1.75,3.9,2.63,7.12,2.63,3.5,0,6.34-1.17,8.52-3.52,2.17-2.34,3.26-5.47,3.26-9.37v-24.24h7.71v42.64h-7.46v-9.41h1.1c-1.19,3.22-3.08,5.72-5.68,7.5-2.6,1.78-5.65,2.67-9.15,2.67Z"/>
      <path class="cls-1" d="M101.89,62.39V30.18c0-1.7-.04-3.43-.13-5.21-.08-1.78-.24-3.52-.47-5.21h7.46l.93,10.68-1.27.08c.56-2.6,1.54-4.76,2.92-6.48,1.38-1.72,3.05-2.99,5-3.81,1.95-.82,3.97-1.23,6.06-1.23.9,0,1.67.03,2.29.08.62.06,1.24.2,1.86.42l-.17,6.87c-.85-.34-1.62-.55-2.33-.64-.71-.08-1.57-.13-2.59-.13-2.49,0-4.62.57-6.4,1.7-1.78,1.13-3.14,2.63-4.07,4.49-.93,1.86-1.4,3.87-1.4,6.02v24.58h-7.71Z"/>
      <path class="cls-1" d="M151.56,63.15c-4.46,0-7.84-1.23-10.13-3.69-2.29-2.46-3.43-6.17-3.43-11.15v-22.63h-8.31v-5.93h8.31v-11.44l7.71-2.12v13.56h12.04v5.93h-12.04v21.95c0,3.28.58,5.61,1.74,6.99,1.16,1.39,2.84,2.08,5.04,2.08,1.13,0,2.1-.1,2.92-.3.82-.2,1.57-.44,2.25-.72v6.36c-.85.34-1.82.61-2.92.81-1.1.2-2.16.3-3.18.3Z"/>
      <path class="cls-1" d="M189.02,62.39V2.63h24.33c6.44,0,11.39,1.36,14.83,4.07,3.45,2.71,5.17,6.53,5.17,11.44,0,3.73-1.12,6.84-3.35,9.32-2.23,2.49-5.27,4.15-9.11,5v-1.27c4.41.51,7.84,2.03,10.3,4.58,2.46,2.54,3.69,5.91,3.69,10.09,0,5.31-1.78,9.4-5.34,12.25-3.56,2.85-8.59,4.28-15.09,4.28h-25.43ZM196.65,28.99h15.6c4.46,0,7.8-.86,10-2.59,2.2-1.72,3.31-4.22,3.31-7.5s-1.1-5.78-3.31-7.5c-2.2-1.72-5.54-2.59-10-2.59h-15.6v20.17ZM196.65,56.12h17.04c4.18,0,7.47-.81,9.88-2.42,2.4-1.61,3.6-4.28,3.6-8.01s-1.2-6.47-3.6-8.05c-2.4-1.58-5.69-2.37-9.88-2.37h-17.04v20.85Z"/>
      <path class="cls-1" d="M262.35,63.15c-3.73,0-7.01-.88-9.83-2.63-2.83-1.75-5.03-4.29-6.61-7.63-1.58-3.33-2.37-7.29-2.37-11.87s.79-8.52,2.37-11.82c1.58-3.31,3.79-5.83,6.61-7.59,2.83-1.75,6.1-2.63,9.83-2.63s7.08.95,9.88,2.84c2.8,1.89,4.65,4.48,5.55,7.76h-1.02l.93-9.83h7.46c-.17,1.7-.33,3.39-.47,5.09-.14,1.7-.21,3.36-.21,5v32.55h-7.71v-9.75h.93c-.9,3.22-2.75,5.78-5.55,7.67-2.8,1.89-6.06,2.84-9.79,2.84ZM264.13,57.05c3.84,0,6.92-1.36,9.24-4.07,2.32-2.71,3.48-6.7,3.48-11.95s-1.16-9.21-3.48-11.87c-2.32-2.66-5.4-3.98-9.24-3.98s-6.94,1.33-9.28,3.98c-2.35,2.66-3.52,6.61-3.52,11.87s1.16,9.24,3.48,11.95c2.32,2.71,5.42,4.07,9.32,4.07Z"/>
      <path class="cls-1" d="M297.27,62.39V30.18c0-1.7-.04-3.43-.13-5.21-.08-1.78-.24-3.52-.47-5.21h7.46l.93,10.68-1.27.08c.56-2.6,1.54-4.76,2.92-6.48,1.38-1.72,3.05-2.99,5-3.81,1.95-.82,3.97-1.23,6.06-1.23.9,0,1.67.03,2.29.08.62.06,1.24.2,1.86.42l-.17,6.87c-.85-.34-1.62-.55-2.33-.64-.71-.08-1.57-.13-2.59-.13-2.49,0-4.62.57-6.4,1.7-1.78,1.13-3.14,2.63-4.07,4.49-.93,1.86-1.4,3.87-1.4,6.02v24.58h-7.71Z"/>
      <path class="cls-1" d="M328.72,62.39V0h7.71v62.39h-7.71Z"/>
      <path class="cls-1" d="M367.29,63.15c-4.18,0-7.8-.89-10.85-2.67-3.05-1.78-5.42-4.32-7.12-7.63-1.7-3.31-2.54-7.25-2.54-11.83s.85-8.43,2.54-11.74c1.7-3.31,4.07-5.85,7.12-7.63,3.05-1.78,6.67-2.67,10.85-2.67s7.81.89,10.89,2.67c3.08,1.78,5.45,4.32,7.12,7.63,1.67,3.31,2.5,7.22,2.5,11.74s-.83,8.52-2.5,11.83c-1.67,3.31-4.04,5.85-7.12,7.63-3.08,1.78-6.71,2.67-10.89,2.67ZM367.29,57.05c3.84,0,6.92-1.36,9.24-4.07,2.32-2.71,3.48-6.7,3.48-11.95s-1.16-9.21-3.48-11.87c-2.32-2.66-5.4-3.98-9.24-3.98s-6.99,1.33-9.28,3.98c-2.29,2.66-3.43,6.61-3.43,11.87s1.14,9.24,3.43,11.95,5.38,4.07,9.28,4.07Z"/>
      <path class="cls-1" d="M408.99,62.39l-15.94-42.64h8.05l12.88,36.53h-2.2l13.22-36.53h6.27l13.14,36.53h-2.12l12.97-36.53h7.71l-16.02,42.64h-7.29l-13.56-37.13h3.73l-13.48,37.13h-7.37Z"/>
    </g>
  </g>
</svg>